<svg width="51" height="61" viewBox="0 0 51 61" fill="none" xmlns="http://www.w3.org/2000/svg">
<path d="M37.6791 0.409836C34.4445 0.611934 30.7312 2.5495 28.5234 5.01691C26.5288 7.2611 24.955 10.5941 25.5975 13.8186C29.1126 13.9182 32.6408 11.9304 34.7532 9.41778C36.7254 7.06801 38.2205 3.7882 37.6791 0.409836ZM37.8709 13.8128C32.796 13.8128 30.6741 17.165 27.159 17.165C23.5429 17.165 20.2373 14.0248 15.8609 14.0248C9.90798 14.0279 0.858887 19.9571 0.858887 33.926C0.858887 46.634 11.5687 60.7377 17.6143 60.7377C21.2865 60.7769 22.1767 58.2551 27.159 58.228C32.1469 58.1888 33.2232 60.7709 36.9011 60.7377C41.0417 60.7045 44.2755 55.812 46.6376 51.936C48.332 49.1609 49.0286 47.7441 50.3415 44.6071C40.5985 41.9526 38.66 25.0588 50.3415 21.5658C48.1365 17.5208 41.7002 13.8128 37.8709 13.8128Z" fill="#3AC548"/>
</svg>
