<svg width="69" height="73" viewBox="0 0 69 73" fill="none" xmlns="http://www.w3.org/2000/svg">
<path d="M21.7266 3.01639C21.3675 3.01639 21.0084 3.16414 20.7349 3.45824C20.1878 4.04644 20.1878 5.00273 20.7349 5.59093L24.4114 9.54405C20.2373 12.8375 17.5186 18.1368 17.5186 24.1311H51.1828C51.1828 18.1368 48.4641 12.8375 44.2899 9.54405L47.9665 5.59093C48.5135 4.99971 48.5135 4.04946 47.9665 3.45824C47.4194 2.87005 46.5301 2.87005 45.983 3.45824L41.8243 7.92981C39.5704 6.72522 37.0387 6.03278 34.3507 6.03278C31.6626 6.03278 29.131 6.72522 26.8771 7.92981L22.7183 3.45824C22.4448 3.16414 22.0857 3.01639 21.7266 3.01639ZM25.9346 15.082H28.74V18.0984H25.9346V15.082ZM39.9614 15.082H42.7667V18.0984H39.9614V15.082ZM11.9079 27.1475C10.3593 27.1475 9.10254 28.4989 9.10254 30.1639V48.2623C9.10254 49.9273 10.3593 51.2787 11.9079 51.2787C13.4564 51.2787 14.7132 49.9273 14.7132 48.2623V30.1639C14.7132 28.4989 13.4564 27.1475 11.9079 27.1475ZM17.5186 27.1475V51.2787C17.5186 52.9437 18.7754 54.2951 20.3239 54.2951H23.1293V64.8525C23.1293 67.35 25.0145 69.377 27.3373 69.377C29.6601 69.377 31.5453 67.35 31.5453 64.8525V54.2951H37.156V64.8525C37.156 67.35 39.0412 69.377 41.3641 69.377C43.6869 69.377 45.5721 67.35 45.5721 64.8525V54.2951H48.3774C49.926 54.2951 51.1828 52.9437 51.1828 51.2787V27.1475H17.5186ZM56.7935 27.1475C55.2449 27.1475 53.9881 28.4989 53.9881 30.1639V48.2623C53.9881 49.9273 55.2449 51.2787 56.7935 51.2787C58.342 51.2787 59.5988 49.9273 59.5988 48.2623V30.1639C59.5988 28.4989 58.342 27.1475 56.7935 27.1475Z" fill="white"/>
</svg>
