<svg width="68" height="73" viewBox="0 0 68 73" fill="none" xmlns="http://www.w3.org/2000/svg">
<path d="M33.9124 6.2623C18.4501 6.2623 5.85889 19.8007 5.85889 36.4262C5.85889 53.0517 18.4501 66.5902 33.9124 66.5902C49.3747 66.5902 61.9659 53.0517 61.9659 36.4262C61.9659 19.8007 49.3747 6.2623 33.9124 6.2623ZM33.9124 12.2951C46.3392 12.2951 56.3552 23.0646 56.3552 36.4262C56.3552 49.7879 46.3392 60.5574 33.9124 60.5574C21.4856 60.5574 11.4696 49.7879 11.4696 36.4262C11.4696 23.0646 21.4856 12.2951 33.9124 12.2951ZM30.7892 29.168L25.0799 33.9754C24.3895 32.1137 22.5485 30.3699 19.9952 30.3699H15.1297V42.0466H19.9952C22.2855 42.0466 24.258 40.5738 25.0799 38.4529L30.7892 43.2602L37.0246 37.9933V42.0466H44.5968V38.6414H40.8271V30.3699H37.0246V34.4349L31.7974 38.8417L30.8002 37.9933L36.0164 33.5866L33.9124 31.7956L28.6852 36.2024L27.688 35.3658L32.9042 30.9472L30.7892 29.168ZM45.594 30.3699V42.0466H53.1553V38.6414H49.3856V30.3699H45.594ZM18.7679 33.728H19.6117C20.9924 33.728 21.9677 34.6235 21.9677 36.2141C21.9677 37.9462 20.8719 38.7003 19.5898 38.7003H18.7679V33.728Z" fill="white"/>
</svg>
