<svg width="69" height="73" viewBox="0 0 69 73" fill="none" xmlns="http://www.w3.org/2000/svg">
<path d="M34.5944 66.7705C34.3204 66.7705 33.6848 66.7823 33.3999 66.7705L39.0106 50.1803H46.9007C48.2924 50.1803 49.8046 49.0374 50.2868 47.6352L56.9495 28.5C57.9577 25.4954 56.3578 23.0328 53.3771 23.0328H42.4406L33.2903 50.5692L28.0851 65.9457C15.724 62.7879 6.54089 50.8519 6.54089 36.6066C6.54089 22.7618 15.209 11.1086 27.0221 7.55021L21.6525 23.4334L12.3598 50.1803H18.3102L26.1345 27.5574H30.5946L22.7703 50.1803H28.2714L35.8984 28.5C36.9176 25.4954 35.3176 23.0328 32.3479 23.0328H27.7892L33.3342 6.47797C33.7506 6.45441 34.178 6.44262 34.5944 6.44262C50.0896 6.44262 62.6479 19.9457 62.6479 36.6066C62.6479 53.2556 50.0896 66.7705 34.5944 66.7705ZM51.6347 27.5574H47.1637L40.8407 45.6557H45.3117L51.6347 27.5574Z" fill="white"/>
</svg>
