<svg width="51" height="55" viewBox="0 0 51 55" fill="none" xmlns="http://www.w3.org/2000/svg">
<path d="M5.78971 0.295074C2.70937 0.295074 0.151611 3.04525 0.151611 6.35732V48.469C0.151611 50.0954 0.761047 51.6458 1.81729 52.7874C2.88686 53.9434 4.33876 54.5902 5.8445 54.5902H45.0098C46.4989 54.5902 47.9346 53.958 48.9932 52.8168L48.9987 52.811C50.0598 51.6729 50.6479 50.129 50.6479 48.5279V6.39267C50.6479 4.78124 50.0573 3.22421 48.9822 2.07428C47.9207 0.938859 46.4825 0.295074 44.9769 0.295074H5.78971ZM22.7697 9.34425C23.5702 9.3444 24.3132 9.67342 24.8244 10.334L32.3255 19.7602H35.602C36.5558 19.7602 37.3746 20.6435 37.3718 21.6691V23.6427C37.3718 24.0831 37.0965 24.3791 36.6869 24.3791H32.7419V44.6573C32.7419 45.0977 32.3351 45.541 31.9255 45.541H30.8242C29.5954 45.541 28.638 44.5144 28.638 43.1962V38.5008C27.2746 39.0859 26.7112 39.2313 25.345 39.2313C20.9798 39.2313 18.7151 36.1531 18.7151 30.8714V24.3791H15.9536C14.9998 24.3791 14.1784 23.1336 14.1784 22.105V20.6381C14.1784 20.1977 14.4482 19.9075 14.8578 19.9075H27.2791L19.0877 11.365C18.8184 11.0694 18.9521 10.4818 19.3617 10.334L21.9533 9.4503C22.2269 9.37715 22.5029 9.34421 22.7697 9.34425ZM22.9725 24.3732V30.8714C22.9725 33.5138 23.735 34.6831 25.9148 34.6831C26.734 34.6831 27.8243 34.5344 28.6434 34.094V24.3732H22.9725Z" fill="white"/>
</svg>
