<svg width="50" height="61" viewBox="0 0 50 61" fill="none" xmlns="http://www.w3.org/2000/svg">
<path d="M36.8202 0C33.5856 0.202098 29.8723 2.13966 27.6645 4.60707C25.6699 6.85127 24.0962 10.1843 24.7386 13.4088C28.2537 13.5084 31.7819 11.5206 33.8943 9.00794C35.8665 6.65817 37.3616 3.37836 36.8202 0ZM37.012 13.4029C31.9371 13.4029 29.8153 16.7551 26.3001 16.7551C22.6841 16.7551 19.3784 13.615 15.002 13.615C9.04909 13.618 0 19.5472 0 33.5161C0 46.2242 10.7099 60.3279 16.7554 60.3279C20.4276 60.3671 21.3178 57.8453 26.3001 57.8181C31.2881 57.7789 32.3644 60.3611 36.0422 60.3279C40.1829 60.2947 43.4166 55.4022 45.7787 51.5261C47.4731 48.7511 48.1697 47.3343 49.4826 44.1972C39.7397 41.5428 37.8012 24.649 49.4826 21.156C47.2776 17.111 40.8413 13.4029 37.012 13.4029Z" fill="white"/>
</svg>
