<svg width="69" height="73" viewBox="0 0 69 73" fill="none" xmlns="http://www.w3.org/2000/svg">
<path d="M54.2511 6.41642C53.8445 6.39606 53.4341 6.42274 53.0238 6.4989L34.3507 9.99839V33.5581H59.5988V12.4433C59.5988 10.6576 58.8697 8.97371 57.5989 7.82446C56.6458 6.96253 55.4709 6.4775 54.2511 6.41642ZM28.74 11.0471L13.7489 13.8573C11.0586 14.364 9.10254 16.8637 9.10254 19.8017V33.5581H28.74V11.0471ZM9.10254 39.5909V53.3473C9.10254 56.2852 11.0586 58.7849 13.7489 59.2917L28.74 62.1019V39.5909H9.10254ZM34.3507 39.5909V63.1505L53.0238 66.65C53.3464 66.7104 53.671 66.7384 53.9936 66.7384C55.3037 66.7384 56.5778 66.2416 57.5989 65.3186C58.8697 64.1693 59.5988 62.4883 59.5988 60.7056V39.5909H34.3507Z" fill="white"/>
</svg>
